<svg width="48" height="48" viewBox="0 0 48 48" fill="none" xmlns="http://www.w3.org/2000/svg">
<rect width="48" height="48" rx="24" transform="matrix(-1 0 0 1 48 0)" fill="#005A71" fill-opacity="0.74"/>
<path d="M36.4638 25.0283L20.2138 36.2783C20.0262 36.4081 19.8068 36.4841 19.5792 36.4981C19.3516 36.512 19.1244 36.4635 18.9224 36.3577C18.7204 36.2518 18.5512 36.0928 18.4332 35.8977C18.3151 35.7026 18.2526 35.4789 18.2525 35.2508V12.7508C18.2524 12.5227 18.3147 12.2988 18.4327 12.1036C18.5507 11.9083 18.7198 11.749 18.9219 11.643C19.1239 11.5371 19.3511 11.4884 19.5789 11.5023C19.8066 11.5163 20.0262 11.5923 20.2138 11.7221L36.4638 22.9721C36.6293 23.0876 36.7645 23.2414 36.8579 23.4204C36.9512 23.5994 37 23.7983 37 24.0002C37 24.2021 36.9512 24.401 36.8579 24.58C36.7645 24.759 36.6293 24.9128 36.4638 25.0283Z" fill="white"/>
</svg>
