<svg width="48" height="48" viewBox="0 0 48 48" fill="none" xmlns="http://www.w3.org/2000/svg">
<rect width="48" height="48" rx="24" fill="#005A71" fill-opacity="0.74"/>
<path d="M11.5362 25.0283L27.7862 36.2783C27.9738 36.4081 28.1932 36.4841 28.4208 36.4981C28.6484 36.512 28.8756 36.4635 29.0776 36.3577C29.2796 36.2518 29.4488 36.0928 29.5668 35.8977C29.6849 35.7026 29.7474 35.4789 29.7475 35.2508V12.7508C29.7476 12.5227 29.6853 12.2988 29.5673 12.1036C29.4493 11.9083 29.2802 11.749 29.0781 11.643C28.8761 11.5371 28.6489 11.4884 28.4211 11.5023C28.1934 11.5163 27.9738 11.5923 27.7862 11.7221L11.5362 22.9721C11.3707 23.0876 11.2355 23.2414 11.1421 23.4204C11.0488 23.5994 11 23.7983 11 24.0002C11 24.2021 11.0488 24.401 11.1421 24.58C11.2355 24.759 11.3707 24.9128 11.5362 25.0283Z" fill="white"/>
</svg>
